<?xml version="1.0" standalone="no"?>
<!DOCTYPE svg PUBLIC "-//W3C//DTD SVG 20010904//EN"
 "http://www.w3.org/TR/2001/REC-SVG-20010904/DTD/svg10.dtd">
<svg version="1.0" xmlns="http://www.w3.org/2000/svg"
 width="700.000000pt" height="700.000000pt" viewBox="0 0 700.000000 700.000000"
 preserveAspectRatio="xMidYMid meet">
<metadata>
Created by potrace 1.11, written by Peter Selinger 2001-2013
</metadata>
<g transform="translate(0.000000,700.000000) scale(0.100000,-0.100000)"
fill="#000000" stroke="none">
<path d="M4080 5798 c-90 -26 -259 -168 -354 -298 -108 -146 -154 -276 -154
-428 0 -114 14 -172 53 -214 32 -35 56 -41 105 -28 63 17 107 71 190 236 114
225 207 354 255 354 15 0 10 -15 -33 -105 -54 -111 -118 -254 -169 -379 -65
-158 -59 -239 32 -423 112 -228 326 -357 600 -362 351 -7 599 162 699 476 36
114 39 161 16 227 -23 66 -120 291 -189 439 -64 134 -65 142 -13 111 54 -32
129 -146 236 -360 38 -76 81 -146 103 -167 67 -68 148 -70 194 -6 45 63 57
242 24 356 -64 220 -278 478 -467 563 -76 34 -179 5 -241 -69 l-25 -30 -61 19
c-82 24 -146 32 -260 32 -92 0 -236 -23 -274 -44 -15 -7 -27 -2 -61 30 -74 68
-139 90 -206 70z"/>
<path d="M1451 5097 c-33 -80 -66 -196 -77 -267 -11 -79 -6 -226 10 -291 14
-52 14 -68 4 -98 -7 -20 -12 -79 -12 -136 1 -113 21 -181 81 -273 83 -124 255
-239 418 -278 101 -24 270 -24 381 0 104 22 235 91 320 169 84 77 126 139 160
238 21 61 25 234 6 281 -9 21 -7 44 4 100 17 76 21 198 11 283 -8 67 -51 211
-85 286 l-27 62 -161 -161 c-161 -161 -162 -161 -200 -156 -76 9 -340 11 -406
2 l-67 -9 -161 161 c-88 88 -162 160 -164 160 -2 0 -18 -33 -35 -73z"/>
<path d="M569 4981 c-92 -44 -89 -179 5 -221 23 -10 56 -24 74 -30 43 -16 110
-83 129 -128 9 -20 17 -68 19 -107 2 -62 -2 -94 -22 -184 -3 -14 -31 -92 -63
-175 -120 -313 -145 -516 -84 -701 44 -133 146 -250 276 -315 43 -22 85 -40
92 -40 7 0 25 -35 40 -77 16 -43 54 -136 86 -207 32 -71 56 -132 54 -136 -3
-4 -18 -10 -35 -13 -50 -10 -107 -54 -137 -104 -51 -88 -31 -224 42 -281 57
-45 164 -55 200 -18 15 15 14 21 -10 81 -47 118 -29 220 51 297 22 20 59 46
85 57 l45 20 0 443 -1 443 -66 21 c-142 46 -261 45 -327 -3 -35 -25 -71 -98
-75 -150 -1 -23 -6 -45 -9 -48 -10 -11 -67 74 -79 119 -16 59 -17 160 -2 241
13 67 31 123 122 372 159 438 55 738 -294 846 -60 18 -75 18 -116 -2z"/>
<path d="M5150 4225 c-25 -30 -130 -97 -191 -120 -94 -37 -229 -67 -314 -68
-161 -4 -404 75 -504 163 -18 17 -37 30 -40 30 -4 0 -6 -348 -6 -772 1 -425
-1 -778 -3 -785 -2 -6 -20 -14 -40 -18 -78 -14 -158 -88 -179 -165 -13 -48 -9
-120 10 -156 23 -44 73 -90 125 -116 81 -39 259 -28 378 23 58 24 118 81 145
137 23 47 23 49 25 475 1 421 1 428 22 450 31 33 101 26 118 -11 4 -9 8 -206
9 -437 2 -410 2 -421 24 -470 58 -130 189 -191 407 -189 117 2 194 46 240 137
23 44 26 59 20 109 -7 67 -24 105 -66 148 -34 35 -103 69 -137 70 l-23 0 -2
792 c-3 695 -5 789 -18 773z"/>
<path d="M1540 3221 l0 -570 -52 -15 c-144 -42 -215 -200 -144 -320 72 -124
250 -157 454 -86 77 27 122 66 156 134 l30 58 1 215 c1 187 -1 216 -14 220
-46 13 -105 46 -140 79 -43 38 -102 143 -100 178 1 14 5 10 12 -14 16 -51 102
-133 162 -154 75 -27 205 -29 283 -5 49 16 74 31 116 73 34 34 55 65 60 86 3
18 8 31 11 28 3 -2 -2 -28 -10 -56 -27 -91 -122 -186 -207 -207 l-28 -7 0
-205 c0 -116 5 -223 11 -248 30 -118 162 -196 357 -210 130 -10 233 40 280
136 36 72 17 180 -44 243 -25 26 -98 65 -131 70 -8 1 -18 7 -21 13 -4 6 -7
264 -7 572 0 309 -1 561 -2 561 -2 0 -24 -16 -49 -35 -125 -95 -282 -137 -494
-130 -69 2 -135 6 -148 9 -141 33 -251 80 -307 132 -14 13 -28 24 -31 24 -2 0
-4 -256 -4 -569z"/>
<path d="M3575 3707 c-207 -74 -235 -348 -83 -827 16 -52 36 -108 43 -125 7
-16 18 -44 23 -61 10 -31 9 -32 -27 -38 -127 -20 -216 -165 -182 -294 15 -53
83 -122 148 -149 62 -26 157 -23 236 7 31 12 57 23 57 24 0 1 -9 20 -19 42
-47 98 -50 188 -8 273 24 49 105 119 159 137 l33 11 1 472 c0 326 -3 475 -11
481 -46 38 -304 71 -370 47z"/>
<path d="M5421 3695 c-52 -13 -99 -29 -104 -34 -8 -8 -14 -828 -8 -942 1 -9
17 -21 40 -27 54 -17 125 -83 157 -148 23 -48 26 -63 22 -123 -3 -43 -14 -88
-31 -124 l-25 -56 56 -22 c83 -31 192 -31 252 -1 119 62 164 158 131 280 -17
62 -81 124 -158 152 l-61 22 23 51 c12 29 32 81 44 117 l21 65 68 24 c147 51
325 164 423 268 90 95 162 215 193 325 19 62 21 72 30 143 l7 50 -23 -44 c-33
-63 -134 -164 -195 -195 -103 -52 -248 -66 -371 -37 -44 11 -52 17 -52 36 0
41 -32 123 -62 160 -70 84 -205 106 -377 60z"/>
<path d="M2797 3616 c-49 -13 -91 -27 -94 -30 -4 -4 -7 -697 -4 -863 1 -24 6
-33 17 -33 45 0 145 -88 171 -150 30 -69 22 -166 -21 -248 -15 -30 -15 -31 12
-52 23 -19 36 -21 86 -17 70 6 119 40 154 108 20 37 23 55 19 111 -3 41 -12
79 -24 100 -23 39 -94 96 -131 104 -15 3 -32 7 -39 9 -8 3 8 47 46 132 70 154
102 239 136 358 35 120 40 154 40 260 0 105 -18 150 -78 199 -34 27 -45 30
-120 33 -63 2 -103 -3 -170 -21z"/>
<path d="M542 832 c-32 -25 -41 -89 -15 -120 27 -34 91 -40 121 -12 22 20 30
50 14 50 -5 0 -19 -12 -31 -26 -18 -20 -28 -24 -49 -19 -33 8 -42 21 -42 62 0
24 7 37 25 49 23 15 65 12 65 -6 0 -12 29 -20 35 -10 3 5 -3 18 -15 30 -25 25
-77 26 -108 2z"/>
<path d="M1093 843 c-7 -3 -13 -11 -13 -18 0 -7 -6 -16 -12 -19 -10 -5 -10 -7
0 -12 6 -3 12 -23 12 -44 0 -21 3 -45 6 -54 7 -17 54 -22 54 -6 0 6 -7 10 -15
10 -11 0 -15 12 -15 45 0 33 4 45 15 45 8 0 15 5 15 10 0 6 -6 10 -14 10 -8 0
-16 8 -18 18 -2 11 -9 17 -15 15z"/>
<path d="M1400 818 c0 -25 -3 -29 -12 -20 -18 18 -53 15 -71 -6 -23 -25 -21
-68 3 -92 22 -22 66 -27 73 -7 4 10 6 10 6 0 1 -7 8 -13 16 -13 12 0 15 16 15
85 0 69 -3 85 -15 85 -10 0 -15 -10 -15 -32z m-10 -47 c15 -30 12 -49 -11 -61
-25 -14 -49 2 -49 34 0 43 41 61 60 27z"/>
<path d="M1530 767 l0 -84 49 -1 c55 -1 68 8 77 55 8 43 -26 78 -67 69 -26 -5
-29 -3 -29 19 0 16 -6 25 -15 25 -12 0 -15 -16 -15 -83z m88 11 c30 -30 -2
-93 -36 -71 -21 13 -27 50 -12 69 15 17 32 18 48 2z"/>
<path d="M1890 767 l0 -84 44 -1 c54 0 74 13 82 54 8 44 -25 79 -67 70 -26 -5
-29 -3 -29 19 0 16 -6 25 -15 25 -12 0 -15 -16 -15 -83z m88 11 c32 -32 -9
-96 -44 -67 -26 22 -11 79 21 79 6 0 16 -5 23 -12z"/>
<path d="M2140 841 c0 -5 -8 -17 -17 -27 -13 -13 -14 -19 -5 -22 7 -2 12 -24
12 -58 0 -41 4 -54 15 -54 11 0 15 13 15 54 0 34 5 56 13 59 9 4 9 8 -2 15 -9
7 -10 12 -2 16 18 11 13 26 -9 26 -11 0 -20 -4 -20 -9z"/>
<path d="M2440 840 c0 -5 7 -10 15 -10 8 0 15 5 15 10 0 6 -7 10 -15 10 -8 0
-15 -4 -15 -10z"/>
<path d="M690 744 c0 -50 3 -64 15 -64 11 0 15 12 15 44 0 37 5 48 27 64 l26
19 -41 0 -42 0 0 -63z"/>
<path d="M790 790 c-56 -56 21 -143 86 -96 26 20 10 32 -21 16 -20 -11 -27
-11 -40 0 -23 19 -18 32 13 30 59 -4 72 -1 65 18 -19 52 -67 68 -103 32z m68
-17 c2 -9 -7 -13 -28 -13 -28 0 -31 2 -20 15 15 18 41 16 48 -2z"/>
<path d="M929 790 c-23 -19 -23 -19 -3 -20 11 0 25 5 31 11 13 13 43 5 43 -10
0 -5 -18 -12 -40 -16 -27 -4 -41 -13 -45 -26 -11 -33 11 -48 69 -46 l53 1 -5
51 c-2 27 -9 56 -14 63 -15 18 -63 15 -89 -8z m71 -64 c0 -18 -39 -31 -52 -18
-15 15 0 32 28 32 14 0 24 -6 24 -14z"/>
<path d="M1180 790 c-11 -11 -20 -31 -20 -45 0 -53 69 -85 105 -49 22 22 11
30 -20 14 -20 -11 -27 -11 -40 0 -24 20 -18 29 23 28 58 -1 62 1 55 20 -19 52
-67 68 -103 32z m54 -6 c26 -10 18 -24 -14 -24 -29 0 -38 9 -23 23 8 9 17 9
37 1z"/>
<path d="M1675 793 c4 -10 15 -42 25 -70 19 -52 19 -53 -1 -63 -24 -14 -25
-30 0 -30 25 0 35 14 65 94 30 80 31 86 11 86 -8 0 -15 -8 -15 -18 0 -10 -4
-22 -9 -28 -5 -5 -11 -18 -13 -29 l-5 -20 -7 20 c-5 11 -12 32 -18 48 -6 15
-17 27 -25 27 -10 0 -13 -6 -8 -17z"/>
<path d="M2215 790 c-16 -18 -17 -20 -1 -20 9 0 25 6 36 12 15 10 22 10 32 0
15 -15 8 -22 -28 -28 -41 -7 -62 -30 -48 -52 8 -12 26 -17 66 -18 l55 -1 -5
46 c-2 25 -9 54 -14 64 -12 24 -70 23 -93 -3z m75 -59 c0 -21 -22 -33 -45 -24
-22 8 -13 26 16 34 13 4 25 7 27 8 1 1 2 -8 2 -18z"/>
<path d="M2350 745 c0 -50 3 -65 14 -65 11 0 16 14 18 48 2 38 7 49 26 57 12
5 22 13 22 17 0 13 -38 9 -43 -4 -4 -10 -6 -10 -6 0 -1 6 -8 12 -16 12 -12 0
-15 -14 -15 -65z"/>
<path d="M2440 745 c0 -51 3 -65 15 -65 12 0 15 14 15 65 0 51 -3 65 -15 65
-12 0 -15 -14 -15 -65z"/>
<path d="M2505 790 c-18 -19 -17 -20 3 -20 12 0 22 5 22 11 0 13 42 8 47 -7 2
-6 -13 -15 -33 -20 -44 -11 -65 -37 -46 -56 7 -7 37 -13 67 -14 l54 -2 -6 52
c-3 29 -12 56 -21 64 -24 18 -67 15 -87 -8z m75 -65 c0 -8 -3 -15 -7 -16 -5 0
-16 -2 -25 -4 -20 -4 -32 10 -23 25 10 16 55 12 55 -5z"/>
<path d="M2654 796 c-25 -19 -9 -47 35 -60 17 -5 30 -14 28 -20 -6 -18 -36
-19 -54 0 -12 11 -18 13 -21 5 -11 -34 55 -55 92 -28 29 21 16 50 -27 60 -20
5 -37 13 -37 17 0 16 21 23 33 11 15 -15 37 -14 37 3 0 7 -10 16 -22 20 -34 9
-42 7 -64 -8z"/>
<path d="M533 573 c-4 -10 -11 -22 -17 -26 -8 -6 -7 -10 2 -14 7 -3 12 -25 12
-59 0 -41 4 -54 15 -54 11 0 15 13 15 54 0 34 5 56 13 59 9 4 8 8 -3 16 -12 9
-12 11 3 17 9 3 14 10 11 15 -9 16 -44 10 -51 -8z"/>
<path d="M1120 505 c0 -69 3 -85 15 -85 12 0 15 14 15 63 l0 62 38 -62 c22
-38 44 -63 55 -63 15 0 17 11 17 85 0 69 -3 85 -15 85 -12 0 -15 -14 -15 -62
l0 -61 -40 61 c-56 88 -70 83 -70 -23z"/>
<path d="M1800 505 c0 -69 3 -85 15 -85 10 0 15 11 15 35 0 35 0 35 45 35 50
0 72 23 59 63 -10 31 -22 37 -81 37 l-53 0 0 -85z m88 59 c17 -3 22 -10 20
-27 -2 -18 -11 -23 -40 -25 -36 -3 -38 -2 -38 26 0 30 12 35 58 26z"/>
<path d="M2200 580 c0 -5 7 -10 15 -10 8 0 15 5 15 10 0 6 -7 10 -15 10 -8 0
-15 -4 -15 -10z"/>
<path d="M2563 583 c-7 -3 -13 -11 -13 -18 0 -7 -6 -16 -12 -18 -10 -4 -10 -7
-1 -14 6 -5 13 -31 15 -58 3 -46 5 -50 31 -53 29 -4 37 12 12 22 -10 3 -15 19
-15 46 0 29 4 40 15 40 8 0 15 5 15 10 0 6 -6 10 -14 10 -8 0 -16 8 -18 18 -2
11 -9 17 -15 15z"/>
<path d="M600 484 c0 -49 3 -64 14 -64 11 0 16 14 18 47 2 38 8 50 26 59 28
14 19 21 -25 22 l-33 1 0 -65z"/>
<path d="M700 530 c-11 -11 -20 -31 -20 -45 0 -14 9 -34 20 -45 11 -11 31 -20
45 -20 14 0 34 9 45 20 11 11 20 31 20 45 0 14 -9 34 -20 45 -11 11 -31 20
-45 20 -14 0 -34 -9 -45 -20z m68 -12 c32 -32 1 -89 -37 -68 -26 13 -28 55 -3
69 22 13 26 13 40 -1z"/>
<path d="M830 485 c0 -51 3 -65 15 -65 11 0 15 12 15 49 0 35 4 51 16 55 26
10 34 -3 34 -55 0 -37 4 -49 15 -49 11 0 15 12 15 49 0 35 4 51 16 55 26 10
34 -3 34 -55 0 -37 4 -49 15 -49 19 0 21 100 3 118 -14 14 -54 16 -63 2 -4 -6
-13 -5 -25 3 -16 9 -24 9 -40 -1 -12 -7 -20 -8 -20 -2 0 5 -7 10 -15 10 -12 0
-15 -14 -15 -65z"/>
<path d="M1310 530 c-11 -11 -20 -31 -20 -45 0 -14 9 -34 20 -45 11 -11 31
-20 45 -20 14 0 34 9 45 20 11 11 20 31 20 45 0 14 -9 34 -20 45 -11 11 -31
20 -45 20 -14 0 -34 -9 -45 -20z m70 -14 c28 -34 -11 -94 -44 -67 -21 18 -20
57 2 70 23 14 28 13 42 -3z"/>
<path d="M1440 504 c0 -68 11 -82 65 -82 l45 1 0 64 c0 49 -3 63 -15 63 -12 0
-15 -11 -13 -46 1 -30 -4 -49 -13 -55 -25 -16 -34 -4 -37 49 -2 37 -7 52 -18
52 -10 0 -14 -12 -14 -46z"/>
<path d="M1580 485 c0 -51 3 -65 15 -65 11 0 15 12 15 49 0 35 4 51 16 55 26
10 34 -3 34 -55 0 -38 4 -49 15 -49 13 0 15 11 13 56 -3 66 -23 88 -58 66 -12
-7 -20 -8 -20 -2 0 5 -7 10 -15 10 -12 0 -15 -14 -15 -65z"/>
<path d="M1960 484 c0 -49 3 -64 14 -64 11 0 16 14 18 47 2 39 7 50 28 60 14
7 23 13 20 14 -3 1 -22 3 -42 4 l-38 4 0 -65z"/>
<path d="M2080 543 c-63 -23 -43 -123 25 -123 14 0 34 9 45 20 50 50 -2 127
-70 103z m48 -25 c32 -32 1 -89 -37 -68 -26 13 -28 55 -3 69 22 13 26 13 40
-1z"/>
<path d="M2200 471 c0 -54 -4 -81 -12 -84 -7 -2 -9 -8 -5 -13 4 -4 16 -3 25 2
24 16 31 174 7 174 -12 0 -15 -15 -15 -79z"/>
<path d="M2270 530 c-56 -56 21 -143 86 -96 26 20 10 32 -21 16 -20 -11 -27
-11 -40 0 -25 21 -17 29 27 27 34 -2 43 2 46 16 5 25 -26 57 -55 57 -12 0 -32
-9 -43 -20z m68 -17 c2 -9 -7 -13 -27 -13 -31 0 -42 14 -18 23 19 8 40 3 45
-10z"/>
<path d="M2410 530 c-39 -39 -11 -110 43 -110 22 0 57 27 57 43 0 13 -23 7
-35 -9 -18 -26 -57 -1 -53 33 4 34 35 54 51 33 16 -20 37 -23 37 -5 0 35 -69
46 -100 15z"/>
</g>
</svg>
